<svg width="606" height="559" viewBox="0 0 606 559" fill="none" xmlns="http://www.w3.org/2000/svg">
<path d="M258.798 214.273H85.5239V300.91H518.566L431.993 214.337H258.798V214.273Z" fill="url(#paint0_linear_52_159)"/>
<path d="M388.611 170.953H85.5239V84.3164H301.974L388.611 170.953Z" fill="url(#paint1_linear_52_159)"/>
<path d="M518.566 300.902H296.644C296.644 300.902 296.597 300.95 296.597 300.965C286.031 314.448 276.696 328.924 268.732 344.221C265.137 351.112 261.825 358.161 258.798 365.367C255.754 372.606 253.026 380.001 250.582 387.539C246.072 401.527 242.603 416.003 240.316 430.858C238.14 444.971 237.004 459.432 237.004 474.16H345.308C345.308 459.211 347.201 444.703 350.765 430.858C354.723 415.482 360.731 400.943 368.489 387.539C377.919 371.234 389.936 356.6 403.97 344.221C406.068 342.36 408.212 340.546 410.404 338.812C438.963 315.962 474.917 301.959 514.088 300.965C515.586 300.918 517.068 300.902 518.566 300.902Z" fill="url(#paint2_linear_52_159)"/>
<defs>
<linearGradient id="paint0_linear_52_159" x1="63.9357" y1="257.592" x2="449.906" y2="257.592" gradientUnits="userSpaceOnUse">
<stop stop-color="#890216"/>
<stop offset="1" stop-color="#C8102E"/>
</linearGradient>
<linearGradient id="paint1_linear_52_159" x1="63.9357" y1="127.635" x2="449.906" y2="127.635" gradientUnits="userSpaceOnUse">
<stop stop-color="#890216"/>
<stop offset="1" stop-color="#C8102E"/>
</linearGradient>
<linearGradient id="paint2_linear_52_159" x1="377.793" y1="474.16" x2="377.793" y2="300.902" gradientUnits="userSpaceOnUse">
<stop stop-color="#C8102E"/>
<stop offset="1" stop-color="#890216"/>
</linearGradient>
</defs>
</svg>
