<svg width="1609" height="453" viewBox="0 0 1609 453" fill="none" xmlns="http://www.w3.org/2000/svg">
<path d="M902.777 366.259L891.956 347.988H895.31L904.319 363.425L913.329 347.988H916.683L905.862 366.259V377.66H902.765V366.259H902.777Z" fill="#14213D"/>
<path d="M917.243 375.497C915.778 374.05 915.034 372.154 915.034 369.796V364.095C915.034 361.737 915.778 359.841 917.255 358.394C918.745 356.948 920.702 356.23 923.151 356.23H926.698C929.147 356.23 931.116 356.948 932.593 358.394C934.083 359.841 934.815 361.737 934.815 364.095V369.796C934.815 372.154 934.07 374.05 932.568 375.497C931.066 376.943 929.084 377.66 926.597 377.66H923.05C920.626 377.66 918.682 376.943 917.218 375.497H917.243ZM926.622 374.998C928.175 374.998 929.412 374.524 930.346 373.564C931.268 372.604 931.735 371.352 931.735 369.796V364.095C931.735 362.539 931.268 361.287 930.346 360.327C929.425 359.367 928.213 358.892 926.711 358.892H923.163C921.661 358.892 920.449 359.367 919.528 360.327C918.606 361.287 918.139 362.539 918.139 364.095V369.796C918.139 371.376 918.581 372.64 919.477 373.588C920.374 374.536 921.573 374.998 923.062 374.998H926.61H926.622Z" fill="#14213D"/>
<path d="M941.597 375.662C940.373 374.341 939.761 372.602 939.761 370.468V356.23H942.845V370.554C942.845 371.874 943.17 372.935 943.832 373.749C944.481 374.551 945.343 374.958 946.392 374.958H949.039C950.351 374.958 951.562 374.44 952.674 373.391C953.785 372.355 954.497 371.035 954.809 369.468V356.243H957.894V377.327H954.896V374.119C954.234 375.131 953.373 375.982 952.286 376.649C951.2 377.327 950.151 377.66 949.127 377.66H946.392C944.419 377.66 942.833 376.994 941.597 375.674V375.662Z" fill="#14213D"/>
<path d="M964.487 356.305H967.386V359.602C967.942 358.603 968.775 357.791 969.886 357.167C970.998 356.543 972.17 356.23 973.378 356.23H975.202V359.015H973.378C971.614 359.015 970.189 359.59 969.101 360.751C968.014 361.9 967.471 363.436 967.471 365.347V377.66H964.487V356.318V356.305Z" fill="#14213D"/>
<path d="M990.038 347.988H1009.82V350.786H993.216V361.642H1008.22V364.44H993.216V377.66H990.038V347.988Z" fill="#14213D"/>
<path d="M1016 376.336C1015.18 375.444 1014.76 373.971 1014.76 371.904V347.988H1017.53V371.904C1017.53 372.981 1017.73 373.761 1018.12 374.231C1018.51 374.714 1019.16 374.949 1020.06 374.949H1021.36V377.66H1020.06C1018.17 377.66 1016.81 377.215 1016 376.323V376.336Z" fill="#14213D"/>
<path d="M1026.83 375.617C1025.39 374.243 1024.66 372.418 1024.66 370.144V364.184C1024.66 361.801 1025.37 359.879 1026.83 358.42C1028.27 356.96 1030.19 356.23 1032.56 356.23H1036.04C1038.31 356.23 1040.14 356.936 1041.53 358.359C1042.92 359.77 1043.61 361.655 1043.61 363.978V367.639H1027.72V370.132C1027.72 371.579 1028.17 372.747 1029.06 373.647C1029.95 374.547 1031.12 374.997 1032.57 374.997H1035.8C1037.21 374.997 1038.36 374.62 1039.23 373.853C1040.11 373.087 1040.55 372.066 1040.55 370.789H1043.53C1043.53 372.844 1042.82 374.498 1041.4 375.763C1039.99 377.028 1038.12 377.66 1035.8 377.66H1032.57C1030.19 377.66 1028.28 376.967 1026.84 375.593L1026.83 375.617ZM1040.56 365.06V363.978C1040.56 362.445 1040.15 361.217 1039.33 360.293C1038.51 359.368 1037.42 358.894 1036.06 358.894H1032.57C1031.13 358.894 1029.95 359.38 1029.06 360.353C1028.17 361.326 1027.72 362.603 1027.72 364.184V365.06H1040.55H1040.56Z" fill="#14213D"/>
<path d="M1050.63 375.617C1049.26 374.243 1048.56 372.418 1048.56 370.144V364.184C1048.56 361.801 1049.25 359.879 1050.63 358.42C1052.01 356.96 1053.85 356.23 1056.12 356.23H1059.45C1061.62 356.23 1063.37 356.936 1064.7 358.359C1066.03 359.77 1066.69 361.655 1066.69 363.978V367.639H1051.49V370.132C1051.49 371.579 1051.92 372.747 1052.77 373.647C1053.62 374.547 1054.74 374.997 1056.13 374.997H1059.21C1060.57 374.997 1061.67 374.62 1062.5 373.853C1063.34 373.087 1063.76 372.066 1063.76 370.789H1066.61C1066.61 372.844 1065.93 374.498 1064.58 375.763C1063.22 377.028 1061.43 377.66 1059.21 377.66H1056.13C1053.85 377.66 1052.02 376.967 1050.65 375.593L1050.63 375.617ZM1063.76 365.06V363.978C1063.76 362.445 1063.37 361.217 1062.58 360.293C1061.8 359.368 1060.76 358.894 1059.45 358.894H1056.12C1054.74 358.894 1053.61 359.38 1052.76 360.353C1051.9 361.326 1051.48 362.603 1051.48 364.184V365.06H1063.75H1063.76Z" fill="#14213D"/>
<path d="M1075.68 376.2C1074.76 375.218 1074.31 373.619 1074.31 371.366V358.902H1070.81V356.145H1074.31V349.637H1077.18V356.145H1082.35V358.902H1077.18V371.366C1077.18 372.624 1077.41 373.531 1077.88 374.085C1078.34 374.626 1079.12 374.903 1080.2 374.903H1082.35V377.66H1080.2C1078.11 377.66 1076.6 377.169 1075.68 376.2Z" fill="#14213D"/>
<path d="M1087.3 347.988H1090.59V357.055H1087.3V347.988Z" fill="#14213D"/>
<path d="M1096.69 375.885C1095.38 374.694 1094.71 373.126 1094.71 371.181H1097.71C1097.71 372.348 1098.1 373.296 1098.86 374.014C1099.63 374.731 1100.65 375.095 1101.89 375.095H1105.62C1106.84 375.095 1107.84 374.852 1108.61 374.366C1109.39 373.88 1109.76 373.248 1109.76 372.47V371.06C1109.76 370.537 1109.55 370.063 1109.12 369.662C1108.7 369.261 1108.14 368.993 1107.45 368.848L1100.06 367.596C1098.57 367.34 1097.39 366.793 1096.49 365.955C1095.59 365.104 1095.14 364.119 1095.14 362.977V361.603C1095.14 359.999 1095.76 358.698 1097.02 357.713C1098.27 356.729 1099.93 356.23 1101.98 356.23H1105.67C1107.66 356.23 1109.27 356.777 1110.5 357.871C1111.72 358.965 1112.33 360.412 1112.33 362.223H1109.34C1109.31 361.202 1108.96 360.375 1108.29 359.743C1107.61 359.123 1106.74 358.807 1105.65 358.807H1101.97C1100.83 358.807 1099.92 359.063 1099.23 359.573C1098.55 360.084 1098.21 360.764 1098.21 361.591V362.794C1098.21 363.317 1098.45 363.791 1098.92 364.204C1099.4 364.618 1100 364.885 1100.75 364.994L1108.1 366.246C1109.52 366.502 1110.67 367.036 1111.55 367.875C1112.42 368.702 1112.85 369.711 1112.85 370.878V372.543C1112.85 374.074 1112.18 375.302 1110.86 376.25C1109.54 377.198 1107.79 377.66 1105.62 377.66H1101.89C1099.72 377.66 1097.99 377.065 1096.67 375.873L1096.69 375.885Z" fill="#14213D"/>
<path d="M1130.04 376.929C1129.56 376.434 1129.33 375.753 1129.33 374.874V347.988H1149.11V350.7H1132.45V361.128H1147.85V363.84H1132.45V374.948H1149.11V377.66H1132.07C1131.2 377.66 1130.52 377.412 1130.06 376.917L1130.04 376.929Z" fill="#14213D"/>
<path d="M1156.67 359.335H1153.23V356.64H1156.67V354.991C1156.67 352.689 1157.23 350.942 1158.35 349.76C1159.47 348.579 1161.1 347.988 1163.26 347.988H1164.77V350.597H1163.26C1161.97 350.597 1161.04 350.954 1160.45 351.668C1159.85 352.382 1159.55 353.489 1159.55 354.979V356.628H1164.34V359.323H1159.55V377.66H1156.67V359.323V359.335Z" fill="#14213D"/>
<path d="M1187.03 377.66H1183.99V359.244H1174.73V377.66H1171.7V359.244H1168.07V356.55H1171.7V354.988C1171.7 352.688 1172.29 350.941 1173.47 349.76C1174.65 348.579 1176.37 347.988 1178.64 347.988H1184.03V350.596H1178.64C1177.29 350.596 1176.31 350.953 1175.68 351.666C1175.05 352.38 1174.73 353.487 1174.73 354.976V356.538H1187.03V377.648V377.66Z" fill="#14213D"/>
<path d="M1194.86 375.584C1193.48 374.212 1192.8 372.391 1192.8 370.12V364.171C1192.8 361.791 1193.48 359.873 1194.86 358.416C1196.24 356.959 1198.05 356.23 1200.29 356.23H1203.69C1205.81 356.23 1207.52 356.825 1208.82 358.015C1210.12 359.205 1210.77 360.771 1210.77 362.714H1207.87C1207.87 361.573 1207.5 360.65 1206.73 359.946C1205.97 359.242 1204.96 358.889 1203.69 358.889H1200.29C1198.94 358.889 1197.85 359.375 1197.01 360.346C1196.19 361.318 1195.77 362.593 1195.77 364.171V370.12C1195.77 371.589 1196.19 372.767 1197.03 373.653C1197.87 374.54 1198.96 374.989 1200.31 374.989H1203.71C1205 374.989 1206.04 374.528 1206.84 373.617C1207.63 372.706 1208.03 371.48 1208.03 369.962H1210.93C1210.93 372.269 1210.26 374.115 1208.95 375.535C1207.62 376.944 1205.89 377.66 1203.72 377.66H1200.33C1198.07 377.66 1196.24 376.968 1194.86 375.596V375.584Z" fill="#14213D"/>
<path d="M1216.56 352.752C1216.1 352.332 1215.87 351.776 1215.87 351.097C1215.87 350.418 1216.1 349.875 1216.56 349.442C1217.01 349.022 1217.61 348.812 1218.35 348.812C1219.08 348.812 1219.67 349.022 1220.14 349.442C1220.6 349.862 1220.82 350.418 1220.82 351.097C1220.82 351.776 1220.59 352.32 1220.14 352.752C1219.68 353.172 1219.08 353.382 1218.35 353.382C1217.61 353.382 1217.02 353.172 1216.56 352.752ZM1216.7 356.555H1220V377.66H1216.7V356.555Z" fill="#14213D"/>
<path d="M1228.67 375.617C1227.29 374.243 1226.59 372.418 1226.59 370.144V364.184C1226.59 361.801 1227.28 359.879 1228.67 358.42C1230.04 356.96 1231.88 356.23 1234.15 356.23H1237.48C1239.65 356.23 1241.4 356.936 1242.73 358.359C1244.06 359.77 1244.72 361.655 1244.72 363.978V367.639H1229.52V370.132C1229.52 371.579 1229.95 372.747 1230.8 373.647C1231.66 374.547 1232.77 374.997 1234.16 374.997H1237.24C1238.6 374.997 1239.7 374.62 1240.53 373.853C1241.37 373.087 1241.79 372.066 1241.79 370.789H1244.64C1244.64 372.844 1243.96 374.498 1242.61 375.763C1241.26 377.028 1239.46 377.66 1237.24 377.66H1234.16C1231.88 377.66 1230.05 376.967 1228.68 375.593L1228.67 375.617ZM1241.79 365.06V363.978C1241.79 362.445 1241.4 361.217 1240.62 360.293C1239.83 359.368 1238.79 358.894 1237.48 358.894H1234.15C1232.77 358.894 1231.64 359.38 1230.79 360.353C1229.93 361.326 1229.51 362.603 1229.51 364.184V365.06H1241.78H1241.79Z" fill="#14213D"/>
<path d="M1250.5 356.576H1253.48V359.699C1254.13 358.687 1254.99 357.848 1256.03 357.206C1257.07 356.564 1258.13 356.23 1259.17 356.23H1262.07C1264.03 356.23 1265.61 356.897 1266.81 358.218C1268.02 359.539 1268.62 361.279 1268.62 363.415V377.66H1265.56V363.328C1265.56 362.032 1265.23 360.971 1264.57 360.156C1263.92 359.341 1263.06 358.934 1261.98 358.934H1259.26C1257.93 358.934 1256.71 359.452 1255.62 360.502C1254.53 361.539 1253.84 362.884 1253.56 364.513V377.66H1250.49V356.564L1250.5 356.576Z" fill="#14213D"/>
<path d="M1275.73 375.584C1274.29 374.212 1273.57 372.391 1273.57 370.12V364.171C1273.57 361.791 1274.29 359.873 1275.73 358.416C1277.17 356.959 1279.07 356.23 1281.4 356.23H1284.96C1287.18 356.23 1288.96 356.825 1290.33 358.015C1291.68 359.205 1292.36 360.771 1292.36 362.714H1289.33C1289.33 361.573 1288.94 360.65 1288.14 359.946C1287.34 359.242 1286.28 358.889 1284.96 358.889H1281.4C1279.99 358.889 1278.85 359.375 1277.98 360.346C1277.12 361.318 1276.68 362.593 1276.68 364.171V370.12C1276.68 371.589 1277.12 372.767 1277.99 373.653C1278.88 374.54 1280.01 374.989 1281.43 374.989H1284.98C1286.33 374.989 1287.42 374.528 1288.25 373.617C1289.08 372.706 1289.49 371.48 1289.49 369.962H1292.53C1292.53 372.269 1291.83 374.115 1290.45 375.535C1289.06 376.944 1287.26 377.66 1284.99 377.66H1281.44C1279.08 377.66 1277.17 376.968 1275.73 375.596V375.584Z" fill="#14213D"/>
<path d="M1299.1 384.385C1297.88 383.385 1297.19 382.065 1297.06 380.437H1300.13C1300.24 381.276 1300.64 381.967 1301.3 382.485C1301.97 383.003 1302.77 383.262 1303.74 383.262H1307.06C1308.54 383.262 1309.68 382.781 1310.49 381.806C1311.3 380.832 1311.71 379.474 1311.71 377.735V373.849C1311.03 374.86 1310.17 375.699 1309.14 376.341C1308.11 376.995 1307.07 377.315 1306.06 377.315H1303.33C1301.34 377.315 1299.74 376.649 1298.5 375.329C1297.27 374.009 1296.65 372.269 1296.65 370.135V356.23H1299.72V370.221C1299.72 371.541 1300.05 372.602 1300.71 373.417C1301.38 374.219 1302.25 374.626 1303.33 374.626H1305.97C1307.27 374.626 1308.48 374.108 1309.58 373.059C1310.69 372.023 1311.4 370.702 1311.71 369.136V356.243H1314.78V377.747C1314.78 380.313 1314.1 382.312 1312.74 383.743C1311.37 385.174 1309.5 385.902 1307.09 385.902H1303.77C1301.89 385.902 1300.35 385.396 1299.13 384.397L1299.1 384.385Z" fill="#14213D"/>
<path d="M1318.9 380.336L1319.49 379.932C1320.27 379.385 1320.86 378.756 1321.24 378.043C1321.62 377.318 1321.82 376.486 1321.82 375.535V373.539H1324.67V375.535C1324.67 377.056 1324.39 378.34 1323.84 379.397C1323.29 380.455 1322.43 381.37 1321.27 382.118L1320.52 382.605L1318.9 380.324V380.336Z" fill="#14213D"/>
<path d="M1345.55 376.461C1344.15 375.666 1343.06 374.528 1342.3 373.072C1341.54 371.616 1341.16 369.927 1341.16 368.018V347.988H1344.31V368.104C1344.31 370.147 1344.87 371.787 1345.98 373.023C1347.09 374.271 1348.57 374.883 1350.39 374.883H1355C1356.82 374.883 1358.3 374.259 1359.41 373.023C1360.52 371.775 1361.08 370.135 1361.08 368.104V347.988H1364.23V368.018C1364.23 369.915 1363.85 371.603 1363.09 373.072C1362.31 374.54 1361.24 375.666 1359.84 376.461C1358.45 377.256 1356.84 377.66 1355.01 377.66H1350.4C1348.58 377.66 1346.97 377.256 1345.57 376.461H1345.55Z" fill="#14213D"/>
<path d="M1370.84 356.576H1373.82V359.699C1374.47 358.687 1375.32 357.848 1376.37 357.206C1377.41 356.564 1378.47 356.23 1379.51 356.23H1382.4C1384.36 356.23 1385.94 356.897 1387.15 358.218C1388.35 359.539 1388.96 361.279 1388.96 363.415V377.66H1385.89V363.328C1385.89 362.032 1385.57 360.971 1384.91 360.156C1384.25 359.341 1383.4 358.934 1382.32 358.934H1379.6C1378.27 358.934 1377.05 359.452 1375.96 360.502C1374.86 361.539 1374.18 362.884 1373.89 364.513V377.66H1370.83V356.564L1370.84 356.576Z" fill="#14213D"/>
<path d="M1396.11 376.336C1395.19 375.444 1394.73 373.971 1394.73 371.904V347.988H1397.84V371.904C1397.84 372.981 1398.07 373.761 1398.51 374.231C1398.95 374.714 1399.68 374.949 1400.69 374.949H1402.15V377.66H1400.69C1398.56 377.66 1397.03 377.215 1396.11 376.323V376.336Z" fill="#14213D"/>
<path d="M1407.61 375.617C1406.18 374.243 1405.44 372.418 1405.44 370.144V364.184C1405.44 361.801 1406.16 359.879 1407.61 358.42C1409.05 356.96 1410.98 356.23 1413.35 356.23H1416.83C1419.1 356.23 1420.93 356.936 1422.32 358.359C1423.71 359.77 1424.4 361.655 1424.4 363.978V367.639H1408.51V370.132C1408.51 371.579 1408.95 372.747 1409.85 373.647C1410.74 374.547 1411.91 374.997 1413.36 374.997H1416.58C1418 374.997 1419.15 374.62 1420.02 373.853C1420.9 373.087 1421.34 372.066 1421.34 370.789H1424.31C1424.31 372.844 1423.61 374.498 1422.19 375.763C1420.78 377.028 1418.9 377.66 1416.58 377.66H1413.36C1410.98 377.66 1409.07 376.967 1407.63 375.593L1407.61 375.617ZM1421.34 365.06V363.978C1421.34 362.445 1420.93 361.217 1420.11 360.293C1419.29 359.368 1418.2 358.894 1416.83 358.894H1413.35C1411.91 358.894 1410.73 359.38 1409.84 360.353C1408.94 361.326 1408.5 362.603 1408.5 364.184V365.06H1421.32H1421.34Z" fill="#14213D"/>
<path d="M1430.37 376.092C1429.14 375.035 1428.52 373.625 1428.52 371.85V370.513C1428.52 368.763 1429.16 367.365 1430.44 366.307C1431.72 365.25 1433.41 364.727 1435.51 364.727H1438.23C1439.16 364.727 1440.13 364.861 1441.12 365.14C1442.12 365.42 1442.96 365.797 1443.67 366.259V362.806C1443.67 361.64 1443.3 360.691 1442.57 359.95C1441.83 359.221 1440.85 358.844 1439.63 358.844H1436.23C1435.01 358.844 1434.03 359.123 1433.29 359.67C1432.56 360.23 1432.19 360.959 1432.19 361.883H1429.12C1429.12 360.193 1429.76 358.82 1431.08 357.786C1432.39 356.741 1434.1 356.23 1436.23 356.23H1439.63C1441.73 356.23 1443.42 356.838 1444.72 358.042C1446.01 359.245 1446.65 360.837 1446.65 362.806V377.332H1443.76V374.415C1443.1 375.411 1442.24 376.202 1441.19 376.785C1440.12 377.368 1439.02 377.66 1437.89 377.66H1435.35C1433.27 377.66 1431.62 377.137 1430.39 376.08L1430.37 376.092ZM1437.97 375.047C1439.3 375.047 1440.49 374.646 1441.55 373.843C1442.59 373.041 1443.31 371.971 1443.67 370.634V369.091C1443.1 368.568 1442.32 368.143 1441.31 367.827C1440.3 367.511 1439.27 367.353 1438.23 367.353H1435.51C1434.34 367.353 1433.39 367.644 1432.67 368.228C1431.95 368.811 1431.59 369.577 1431.59 370.513V371.85C1431.59 372.822 1431.93 373.6 1432.61 374.184C1433.29 374.767 1434.2 375.059 1435.33 375.059H1437.97V375.047Z" fill="#14213D"/>
<path d="M1453.57 375.885C1452.26 374.694 1451.6 373.126 1451.6 371.181H1454.6C1454.6 372.348 1454.98 373.296 1455.75 374.014C1456.52 374.731 1457.53 375.095 1458.78 375.095H1462.5C1463.73 375.095 1464.73 374.852 1465.5 374.366C1466.27 373.88 1466.65 373.248 1466.65 372.47V371.06C1466.65 370.537 1466.44 370.063 1466.01 369.662C1465.59 369.261 1465.03 368.993 1464.34 368.848L1456.95 367.596C1455.46 367.34 1454.27 366.793 1453.37 365.955C1452.47 365.104 1452.03 364.119 1452.03 362.977V361.603C1452.03 359.999 1452.65 358.698 1453.91 357.713C1455.16 356.729 1456.82 356.23 1458.87 356.23H1462.55C1464.55 356.23 1466.16 356.777 1467.39 357.871C1468.61 358.965 1469.22 360.412 1469.22 362.223H1466.22C1466.2 361.202 1465.85 360.375 1465.18 359.743C1464.5 359.123 1463.63 358.807 1462.54 358.807H1458.86C1457.72 358.807 1456.81 359.063 1456.12 359.573C1455.43 360.084 1455.1 360.764 1455.1 361.591V362.794C1455.1 363.317 1455.33 363.791 1455.81 364.204C1456.28 364.618 1456.88 364.885 1457.63 364.994L1464.99 366.246C1466.41 366.502 1467.56 367.036 1468.43 367.875C1469.31 368.702 1469.73 369.711 1469.73 370.878V372.543C1469.73 374.074 1469.07 375.302 1467.75 376.25C1466.42 377.198 1464.68 377.66 1462.5 377.66H1458.78C1456.61 377.66 1454.87 377.065 1453.56 375.873L1453.57 375.885Z" fill="#14213D"/>
<path d="M1474.68 347.988H1477.73V359.439C1478.39 358.448 1479.22 357.656 1480.23 357.062C1481.24 356.468 1482.28 356.171 1483.32 356.171H1486.29C1488.24 356.171 1489.81 356.839 1491.01 358.164C1492.21 359.488 1492.81 361.234 1492.81 363.375V377.66H1489.76V363.288C1489.76 361.989 1489.44 360.924 1488.78 360.107C1488.13 359.29 1487.27 358.882 1486.2 358.882H1483.41C1482.08 358.882 1480.87 359.401 1479.78 360.429C1478.7 361.456 1478.02 362.781 1477.73 364.39V377.66H1474.68V347.988Z" fill="#14213D"/>
<path d="M1500.75 375.617C1499.31 374.243 1498.58 372.418 1498.58 370.144V364.184C1498.58 361.801 1499.3 359.879 1500.75 358.42C1502.19 356.96 1504.11 356.23 1506.48 356.23H1509.97C1512.24 356.23 1514.06 356.936 1515.45 358.359C1516.84 359.77 1517.54 361.655 1517.54 363.978V367.639H1501.64V370.132C1501.64 371.579 1502.09 372.747 1502.98 373.647C1503.88 374.547 1505.04 374.997 1506.5 374.997H1509.72C1511.14 374.997 1512.29 374.62 1513.16 373.853C1514.04 373.087 1514.47 372.066 1514.47 370.789H1517.45C1517.45 372.844 1516.74 374.498 1515.33 375.763C1513.91 377.028 1512.04 377.66 1509.72 377.66H1506.5C1504.11 377.66 1502.2 376.967 1500.76 375.593L1500.75 375.617ZM1514.47 365.06V363.978C1514.47 362.445 1514.06 361.217 1513.24 360.293C1512.43 359.368 1511.33 358.894 1509.97 358.894H1506.48C1505.04 358.894 1503.87 359.38 1502.97 360.353C1502.08 361.326 1501.63 362.603 1501.63 364.184V365.06H1514.46H1514.47Z" fill="#14213D"/>
<path d="M1525.22 376.632C1524.09 375.959 1523.21 375.029 1522.59 373.83C1521.97 372.631 1521.66 371.236 1521.66 369.646V364.617C1521.66 362.94 1521.98 361.448 1522.64 360.151C1523.28 358.854 1524.21 357.85 1525.41 357.128C1526.6 356.419 1527.95 356.064 1529.49 356.064H1532.63C1533.59 356.064 1534.51 356.284 1535.41 356.737C1536.3 357.19 1537.02 357.801 1537.55 358.585V347.988H1540.62V377.318H1537.64V374.222C1536.98 375.25 1536.14 376.082 1535.09 376.718C1534.05 377.342 1533.02 377.66 1532.03 377.66H1529.1C1527.66 377.66 1526.37 377.33 1525.23 376.657L1525.22 376.632ZM1531.93 374.956C1532.84 374.956 1533.72 374.675 1534.56 374.1C1535.41 373.524 1536.1 372.778 1536.65 371.86C1537.18 370.943 1537.48 369.988 1537.54 369.009V363.724C1537.34 362.243 1536.78 361.044 1535.86 360.114C1534.95 359.196 1533.83 358.731 1532.53 358.731H1529.55C1528.11 358.731 1526.93 359.27 1526.04 360.346C1525.14 361.423 1524.7 362.843 1524.7 364.605V369.633C1524.7 371.2 1525.12 372.472 1525.95 373.463C1526.78 374.454 1527.86 374.956 1529.16 374.956H1531.93Z" fill="#14213D"/>
<path d="M474.077 156.77H498.259V207.478H555.395V156.77H579.577V279.578H555.395V228.523H498.259V279.578H474.077V156.77Z" fill="#14213D"/>
<path d="M607.648 269.709C600.469 262.582 596.886 252.642 596.886 239.9H620.497C620.497 245.933 622.031 250.651 625.099 254.067C628.167 257.483 632.413 259.191 637.862 259.191H657.129C662.222 259.191 666.357 258.122 669.548 255.971C672.727 253.833 674.322 250.958 674.322 247.37V241.46C674.322 235.784 670.15 232.245 661.817 230.856L629.873 225.462C619.454 223.73 611.551 220.4 606.176 215.473C600.788 210.546 598.101 204.255 598.101 196.612V186.881C598.101 180.737 599.745 175.318 603.046 170.625C606.347 165.931 611.035 162.306 617.11 159.763C623.185 157.219 630.216 155.941 638.206 155.941H657.828C665.351 155.941 672.003 157.502 677.795 160.635C683.575 163.768 688.067 168.143 691.245 173.758C694.423 179.385 696.019 185.898 696.019 193.319H672.408C672.408 188.453 671.07 184.546 668.419 181.585C665.756 178.624 662.222 177.149 657.828 177.149H638.206C633.346 177.149 629.443 178.194 626.486 180.282C623.54 182.371 622.056 185.148 622.056 188.625V193.319C622.056 199.119 626.044 202.706 634.033 204.095L665.805 209.661C676.335 211.516 684.385 214.785 689.932 219.478C695.491 224.172 698.265 230.23 698.265 237.639V249.115C698.265 255.259 696.559 260.702 693.147 265.457C689.736 270.212 684.962 273.886 678.826 276.491C672.69 279.096 665.572 280.398 657.473 280.398H637.506C624.768 280.398 614.815 276.835 607.648 269.709Z" fill="#14213D"/>
<path d="M734.442 274.575C727.426 270.692 721.983 265.25 718.1 258.234C714.218 251.219 712.276 243.086 712.276 233.81V202.53C712.276 193.266 714.218 185.121 718.1 178.105C721.983 171.09 727.426 165.647 734.442 161.765C741.458 157.883 749.53 155.941 758.696 155.941H777.126C786.28 155.941 794.365 157.883 801.38 161.765C808.396 165.647 813.839 171.09 817.722 178.105C821.605 185.121 823.546 193.254 823.546 202.53V233.81C823.546 243.086 821.605 251.219 817.722 258.234C813.839 265.25 808.396 270.692 801.38 274.575C794.365 278.457 786.28 280.398 777.126 280.398H758.696C749.542 280.398 741.458 278.457 734.442 274.575ZM777.114 259.193C783.835 259.193 789.253 256.76 793.369 251.895C797.486 247.03 799.537 240.653 799.537 232.778V203.574C799.537 195.699 797.473 189.322 793.369 184.457C789.253 179.592 783.835 177.159 777.114 177.159H758.684C751.963 177.159 746.544 179.592 742.428 184.457C738.312 189.322 736.26 195.699 736.26 203.574V232.778C736.26 240.653 738.312 247.03 742.428 251.895C746.544 256.76 751.963 259.193 758.684 259.193H777.114Z" fill="#14213D"/>
<path d="M891.956 156.77H913.42L953.386 229.75L992.477 156.77H1013.94V279.578H990.38V201.86L964.722 248.526C962.983 251.688 961.207 253.933 959.406 255.284C957.605 256.636 955.532 257.306 953.213 257.306H946.577L915.517 201.86V279.578H891.956V156.77Z" fill="#14213D"/>
<path d="M1107.44 250.981H1061.55L1050.7 279.578H1025.48L1073.46 156.77H1084.32C1091.91 156.77 1097.04 160.279 1099.73 167.298L1143.34 279.578H1118.13L1107.44 250.981ZM1068.04 230.631H1100.97L1084.68 186.421H1084.5L1068.04 230.631Z" fill="#14213D"/>
<path d="M1154.88 156.77H1219.7C1230.27 156.77 1238.78 159.634 1245.23 165.364C1251.68 171.093 1254.9 178.645 1254.9 187.996V200.273C1254.9 206.349 1253.19 211.645 1249.77 216.146C1246.34 220.648 1241.37 224.071 1234.86 226.414V226.762C1238.58 229.217 1241.4 232.02 1243.31 235.182C1245.23 238.344 1247.12 242.722 1248.98 248.34L1258.73 279.566H1233.82L1224.58 250.448C1223.07 245.425 1220.98 241.68 1218.31 239.225C1215.64 236.769 1212.33 235.542 1208.38 235.542H1178.94V279.578H1154.89V156.77H1154.88ZM1215.17 214.67C1220.05 214.67 1223.88 213.356 1226.67 210.727C1229.46 208.098 1230.86 204.675 1230.86 200.459V189.05C1230.86 185.664 1229.81 182.936 1227.72 180.89C1225.63 178.844 1222.84 177.814 1219.36 177.814H1178.94V214.658H1215.18L1215.17 214.67Z" fill="#14213D"/>
<path d="M1274.39 156.77H1298.3V279.578H1274.39V156.77Z" fill="#14213D"/>
<path d="M1322.2 156.77H1343.7L1402.44 240.279V156.77H1426.05V279.578H1404.55L1345.8 196.069V279.578H1322.2V156.77Z" fill="#14213D"/>
<path d="M1452.19 275.003C1449.05 271.965 1447.48 267.984 1447.48 263.074V156.77H1540.62V177.825H1471.56V206.245H1535.39V227.3H1471.56V258.523H1540.62V279.578H1464.41C1459.4 279.578 1455.33 278.065 1452.2 275.015L1452.19 275.003Z" fill="#14213D"/>
<path d="M202.459 167.484H66.9131V235.07H405.667L337.943 167.534H202.459V167.484Z" fill="url(#paint0_linear_51_129)"/>
<path d="M304.288 133.691H66.9131V66.1055H236.435L304.288 133.691Z" fill="url(#paint1_linear_51_129)"/>
<path d="M405.667 235.07H232.214C232.214 235.07 232.178 235.107 232.178 235.12C223.92 245.703 216.623 257.066 210.399 269.072C207.589 274.482 205 280.014 202.634 285.671C200.255 291.353 198.123 297.158 196.213 303.075C192.688 314.054 189.976 325.417 188.189 337.077C186.488 348.155 185.601 359.505 185.601 371.066H270.25C270.25 359.332 271.729 347.944 274.515 337.077C277.608 325.008 282.304 313.596 288.368 303.075C295.739 290.276 305.13 278.789 316.1 269.072C317.739 267.612 319.415 266.188 321.128 264.827C343.449 246.891 371.551 235.9 402.167 235.12C403.337 235.083 404.496 235.07 405.667 235.07Z" fill="url(#paint2_linear_51_129)"/>
<defs>
<linearGradient id="paint0_linear_51_129" x1="50.013" y1="201.277" x2="351.957" y2="201.277" gradientUnits="userSpaceOnUse">
<stop stop-color="#890216"/>
<stop offset="1" stop-color="#C8102E"/>
</linearGradient>
<linearGradient id="paint1_linear_51_129" x1="49.993" y1="99.8984" x2="352.294" y2="99.8984" gradientUnits="userSpaceOnUse">
<stop stop-color="#890216"/>
<stop offset="1" stop-color="#C8102E"/>
</linearGradient>
<linearGradient id="paint2_linear_51_129" x1="295.628" y1="371.066" x2="295.628" y2="235.07" gradientUnits="userSpaceOnUse">
<stop stop-color="#C8102E"/>
<stop offset="1" stop-color="#890216"/>
</linearGradient>
</defs>
</svg>
