<svg width="1609" height="440" viewBox="0 0 1609 440" fill="none" xmlns="http://www.w3.org/2000/svg">
<path d="M474.147 158.992H498.231V209.442H555.133V158.992H579.216V281.174H555.133V230.379H498.231V281.174H474.147V158.992Z" fill="#14213D"/>
<path d="M607.495 271.841C600.277 264.685 596.674 254.704 596.674 241.91H620.412C620.412 247.968 621.954 252.705 625.039 256.135C628.123 259.565 632.392 261.28 637.87 261.28H657.241C662.361 261.28 666.519 260.207 669.726 258.048C672.922 255.901 674.526 253.014 674.526 249.411V243.477C674.526 237.777 670.331 234.223 661.954 232.829L629.838 227.413C619.364 225.673 611.418 222.33 606.014 217.382C600.598 212.435 597.896 206.118 597.896 198.444V188.672C597.896 182.503 599.549 177.062 602.868 172.349C606.187 167.636 610.9 163.996 617.007 161.443C623.114 158.889 630.184 157.605 638.216 157.605H657.944C665.507 157.605 672.194 159.172 678.018 162.319C683.829 165.465 688.344 169.857 691.54 175.495C694.735 181.146 696.339 187.685 696.339 195.137H672.601C672.601 190.251 671.256 186.328 668.591 183.354C665.914 180.381 662.361 178.901 657.944 178.901H638.216C633.33 178.901 629.407 179.949 626.433 182.047C623.472 184.144 621.979 186.932 621.979 190.424V195.137C621.979 200.961 625.989 204.563 634.021 205.957L665.963 211.546C676.549 213.409 684.643 216.691 690.22 221.404C695.796 226.117 698.597 232.2 698.597 239.64V251.163C698.597 257.332 696.882 262.798 693.452 267.572C690.022 272.347 685.223 276.036 679.054 278.652C672.885 281.267 665.729 282.575 657.586 282.575H637.512C624.706 282.575 614.7 278.997 607.495 271.841Z" fill="#14213D"/>
<path d="M734.129 276.728C727.085 272.829 721.619 267.363 717.72 260.318C713.821 253.274 711.872 245.106 711.872 235.791V204.379C711.872 195.076 713.821 186.896 717.72 179.851C721.619 172.806 727.085 167.341 734.129 163.442C741.174 159.543 749.28 157.594 758.484 157.594H776.991C786.183 157.594 794.301 159.543 801.346 163.442C808.391 167.341 813.856 172.806 817.755 179.851C821.654 186.896 823.603 195.064 823.603 204.379V235.791C823.603 245.106 821.654 253.274 817.755 260.318C813.856 267.363 808.391 272.829 801.346 276.728C794.301 280.626 786.183 282.576 776.991 282.576H758.484C749.293 282.576 741.174 280.626 734.129 276.728ZM776.979 261.281C783.728 261.281 789.168 258.838 793.302 253.952C797.435 249.066 799.495 242.663 799.495 234.754V205.427C799.495 197.519 797.422 191.116 793.302 186.23C789.168 181.344 783.728 178.901 776.979 178.901H758.472C751.723 178.901 746.282 181.344 742.149 186.23C738.016 191.116 735.956 197.519 735.956 205.427V234.754C735.956 242.663 738.016 249.066 742.149 253.952C746.282 258.838 751.723 261.281 758.472 261.281H776.979Z" fill="#14213D"/>
<path d="M892.004 158.992H913.472L953.447 231.6L992.545 158.992H1014.01V281.174H990.448V203.852L964.785 250.28C963.046 253.426 961.269 255.659 959.468 257.004C957.666 258.349 955.593 259.015 953.274 259.015H946.636L915.57 203.852V281.174H892.004V158.992Z" fill="#14213D"/>
<path d="M1107.21 252.723H1061.48L1050.66 281.174H1025.52L1073.35 158.992H1084.17C1091.73 158.992 1096.85 162.484 1099.53 169.467L1142.99 281.174H1117.86L1107.21 252.723ZM1067.94 232.476H1100.76L1084.52 188.492H1084.35L1067.94 232.476Z" fill="#14213D"/>
<path d="M1154.52 158.992H1219.45C1230.04 158.992 1238.56 161.842 1245.03 167.542C1251.48 173.242 1254.71 180.756 1254.71 190.059V202.273C1254.71 208.319 1253 213.587 1249.57 218.066C1246.14 222.544 1241.15 225.95 1234.64 228.281V228.627C1238.36 231.07 1241.19 233.858 1243.1 237.004C1245.03 240.15 1246.91 244.506 1248.78 250.095L1258.55 281.161H1233.59L1224.34 252.192C1222.82 247.195 1220.73 243.469 1218.06 241.026C1215.38 238.583 1212.06 237.362 1208.11 237.362H1178.61V281.174H1154.53V158.992H1154.52ZM1214.91 216.597C1219.8 216.597 1223.63 215.29 1226.43 212.674C1229.22 210.058 1230.63 206.653 1230.63 202.458V191.108C1230.63 187.739 1229.58 185.025 1227.48 182.989C1225.38 180.954 1222.6 179.929 1219.1 179.929H1178.61V216.585H1214.92L1214.91 216.597Z" fill="#14213D"/>
<path d="M1274.61 158.992H1298.7V281.174H1274.61V158.992Z" fill="#14213D"/>
<path d="M1322.09 158.992H1343.56L1402.2 242.075V158.992H1425.76V281.174H1404.3L1345.65 198.091V281.174H1322.09V158.992Z" fill="#14213D"/>
<path d="M1452.12 276.645C1448.97 273.622 1447.4 269.662 1447.4 264.776V159.004H1540.62V179.954H1471.5V208.232H1535.38V229.181H1471.5V260.248H1540.62V281.198H1464.34C1459.33 281.198 1455.26 279.692 1452.13 276.657L1452.12 276.645Z" fill="#14213D"/>
<path d="M202.481 169.258H66.9131V237.042H405.722L337.987 169.307H202.481V169.258Z" fill="url(#paint0_linear_51_127)"/>
<path d="M304.046 135.366H66.9131V67.582H236.262L304.046 135.366Z" fill="url(#paint1_linear_51_127)"/>
<path d="M405.722 237.035H232.092C232.092 237.035 232.055 237.072 232.055 237.084C223.788 247.633 216.484 258.959 210.254 270.927C207.441 276.319 204.85 281.834 202.481 287.472C200.1 293.135 197.965 298.922 196.053 304.819C192.524 315.763 189.81 327.089 188.021 338.711C186.319 349.753 185.43 361.067 185.43 372.591H270.166C270.166 360.894 271.647 349.544 274.435 338.711C277.532 326.682 282.233 315.306 288.303 304.819C295.681 292.062 305.082 280.612 316.063 270.927C317.704 269.471 319.382 268.052 321.097 266.695C343.441 248.818 371.571 237.862 402.218 237.084C403.39 237.047 404.55 237.035 405.722 237.035Z" fill="url(#paint2_linear_51_127)"/>
<defs>
<linearGradient id="paint0_linear_51_127" x1="50.0226" y1="203.15" x2="352.003" y2="203.15" gradientUnits="userSpaceOnUse">
<stop stop-color="#890216"/>
<stop offset="1" stop-color="#C8102E"/>
</linearGradient>
<linearGradient id="paint1_linear_51_127" x1="50.0226" y1="101.474" x2="352.003" y2="101.474" gradientUnits="userSpaceOnUse">
<stop stop-color="#890216"/>
<stop offset="1" stop-color="#C8102E"/>
</linearGradient>
<linearGradient id="paint2_linear_51_127" x1="295.582" y1="372.591" x2="295.582" y2="237.035" gradientUnits="userSpaceOnUse">
<stop stop-color="#C8102E"/>
<stop offset="1" stop-color="#890216"/>
</linearGradient>
</defs>
</svg>
