<?xml version="1.0" encoding="utf-8"?>
<!-- Generator: Adobe Illustrator 25.4.1, SVG Export Plug-In . SVG Version: 6.00 Build 0)  -->
<svg version="1.1" id="Capa_1" xmlns="http://www.w3.org/2000/svg" xmlns:xlink="http://www.w3.org/1999/xlink" x="0px" y="0px"
	 viewBox="0 0 389.1 399.2" style="enable-background:new 0 0 389.1 399.2;" xml:space="preserve">
<style type="text/css">
	.st0{display:none;}
	.st1{display:inline;fill:none;}
	.st2{display:inline;}
	.st3{display:inline;fill:none;stroke:#FF0000;stroke-miterlimit:10;}
	.st4{fill:none;stroke:#FF0000;stroke-miterlimit:10;}
	.st5{fill:#FF0000;}
	.st6{display:inline;fill:url(#SVGID_1_);}
	.st7{display:inline;fill:url(#SVGID_00000112618377968229152820000008250057381625118857_);}
	.st8{display:inline;fill:url(#SVGID_00000043457298102086578740000010759383463022217661_);}
	.st9{fill:#112038;}
	.st10{fill:url(#SVGID_00000060738080511927697440000006990732736193982848_);}
	.st11{fill:url(#SVGID_00000105388643989634367870000000809577215525390525_);}
	.st12{fill:url(#SVGID_00000063622906231839470920000012294912791981452710_);}
	
		.st13{display:inline;opacity:0.29;fill:url(#SVGID_00000067218218635831899720000013558600976943908515_);enable-background:new    ;}
	.st14{display:inline;fill:#112038;}
	.st15{fill:none;stroke:#909090;stroke-miterlimit:10;}
	.st16{opacity:0.15;fill:#606060;enable-background:new    ;}
	.st17{display:inline;fill:url(#SVGID_00000065758679328035431860000003510091433038437544_);}
	.st18{display:inline;fill:url(#SVGID_00000137104317199279977840000015694093280149032070_);}
	.st19{display:inline;fill:url(#SVGID_00000083072122331753309950000016237061721822828422_);}
	.st20{display:inline;opacity:0.15;fill:#606060;enable-background:new    ;}
	.st21{fill:url(#SVGID_00000136381667234452204870000008187030874218023341_);}
	.st22{fill:url(#SVGID_00000154413500633219742950000000883361551030914742_);}
	.st23{fill:url(#SVGID_00000182521762393997743980000000535605696613084036_);}
	.st24{fill:url(#SVGID_00000176747626099553332860000009918145734775522212_);}
	.st25{fill:url(#SVGID_00000096777559105596308630000018028571430984943257_);}
	.st26{fill:url(#SVGID_00000056388755652027075860000012874533455240057012_);}
	.st27{fill:url(#SVGID_00000047037158653345805940000010249320739170800830_);}
	.st28{fill:url(#SVGID_00000154400169592344407870000016604308843404652685_);}
	.st29{fill:url(#SVGID_00000018222200402885532840000017058877494907380916_);}
</style>
<g id="Layer_2" class="st0">
	
		<image style="display:inline;overflow:visible;enable-background:new    ;" width="1029" height="772" xlink:href="6E16ACF.jpg"  transform="matrix(0.4817 0 0 0.4817 -686.1694 -140.5325)">
	</image>
</g>
<g id="Layer_1" class="st0">
	<rect x="-575.6" y="-612.8" class="st1" width="386.7" height="65.3"/>
	<text transform="matrix(1 0 0 1 -575.6326 -570.7639)" class="st2" style="font-family:'BaiJamjuree-Bold'; font-size:60px;">HSO TRADE</text>
	<g class="st2">
		<path d="M-655.5-462.8h8.3v17.3h19.6v-17.3h8.3v42h-8.3v-17.5h-19.6v17.5h-8.3V-462.8z"/>
		<path d="M-609.7-424c-2.5-2.5-3.7-5.9-3.7-10.3h8.2c0,2.1,0.5,3.7,1.6,4.9c1.1,1.2,2.5,1.8,4.4,1.8h6.7c1.8,0,3.2-0.4,4.3-1.1
			s1.6-1.7,1.6-3v-2c0-2-1.4-3.2-4.3-3.7l-11-1.9c-3.6-0.6-6.3-1.7-8.2-3.5c-1.9-1.7-2.8-3.9-2.8-6.5v-3.4c0-2.1,0.6-4,1.7-5.6
			s2.8-2.9,4.9-3.8c2.1-0.9,4.5-1.3,7.3-1.3h6.8c2.6,0,4.9,0.5,6.9,1.6s3.5,2.6,4.7,4.5c1.1,1.9,1.6,4.2,1.6,6.8h-8.2
			c0-1.7-0.5-3-1.4-4s-2.1-1.5-3.7-1.5h-6.8c-1.7,0-3,0.4-4.1,1.1c-1,0.7-1.5,1.7-1.5,2.9v1.6c0,2,1.4,3.2,4.1,3.7l11,1.9
			c3.6,0.6,6.4,1.8,8.3,3.4c1.9,1.6,2.9,3.7,2.9,6.3v4c0,2.1-0.6,4-1.8,5.6s-2.8,2.9-4.9,3.8c-2.1,0.9-4.6,1.3-7.4,1.3h-6.9
			C-603.8-420.3-607.2-421.6-609.7-424z"/>
		<path d="M-566.2-422.3c-2.4-1.3-4.3-3.2-5.6-5.6s-2-5.2-2-8.4v-10.8c0-3.2,0.7-6,2-8.4s3.2-4.3,5.6-5.6c2.4-1.3,5.2-2,8.4-2h6.4
			c3.2,0,5.9,0.7,8.4,2c2.4,1.3,4.3,3.2,5.6,5.6c1.3,2.4,2,5.2,2,8.4v10.8c0,3.2-0.7,6-2,8.4s-3.2,4.3-5.6,5.6c-2.4,1.3-5.2,2-8.4,2
			h-6.4C-561-420.3-563.8-421-566.2-422.3z M-551.4-427.7c2.3,0,4.2-0.8,5.6-2.5s2.1-3.9,2.1-6.6v-10.1c0-2.7-0.7-4.9-2.1-6.6
			c-1.4-1.7-3.3-2.5-5.6-2.5h-6.4c-2.3,0-4.2,0.8-5.6,2.5c-1.4,1.7-2.1,3.9-2.1,6.6v10.1c0,2.7,0.7,4.9,2.1,6.6
			c1.4,1.7,3.3,2.5,5.6,2.5H-551.4z"/>
		<path d="M-501.6-455.6h-13.3v-7.2h34.9v7.2h-13.3v34.8h-8.3L-501.6-455.6L-501.6-455.6z"/>
		<path d="M-475.5-462.8h22.3c3.6,0,6.6,1,8.8,2.9c2.2,2,3.3,4.5,3.3,7.7v4.2c0,2.1-0.6,3.9-1.8,5.4s-2.9,2.7-5.1,3.5v0.1
			c1.3,0.8,2.2,1.8,2.9,2.9s1.3,2.6,2,4.5l3.4,10.7h-8.6l-3.2-10c-0.5-1.7-1.2-3-2.2-3.8c-0.9-0.8-2.1-1.3-3.4-1.3h-10.1v15.1h-8.3
			L-475.5-462.8L-475.5-462.8z M-454.8-443c1.7,0,3-0.5,4-1.3c1-0.9,1.4-2.1,1.4-3.5v-3.9c0-1.2-0.4-2.1-1.1-2.8
			c-0.7-0.7-1.7-1-2.9-1h-13.9v12.6h12.5V-443z"/>
		<path d="M-410.3-430.6H-426l-3.7,9.8h-8.6l16.4-42h3.7c2.6,0,4.4,1.2,5.3,3.6l14.9,38.4h-8.6L-410.3-430.6z M-423.8-437.6h11.3
			l-5.6-15.1h-0.1L-423.8-437.6z"/>
		<path d="M-392.7-422.4c-1.1-1-1.6-2.4-1.6-4.1v-36.3h20c3.2,0,6,0.6,8.4,1.8s4.3,2.9,5.6,5.1c1.3,2.2,2,4.7,2,7.6v11.8
			c0,5.2-1.3,9.1-4,11.7c-2.7,2.7-6.6,4-11.8,4h-14.5C-390.3-420.8-391.7-421.3-392.7-422.4z M-374.3-428.1c2.6,0,4.5-0.7,5.8-2.2
			s2-3.7,2-6.5v-11c0-2.3-0.7-4.1-2.2-5.5c-1.5-1.4-3.4-2.1-5.8-2.1h-11.6v27.4h11.8V-428.1z"/>
		<path d="M-350.6-422.4c-1.1-1-1.6-2.4-1.6-4.1v-36.3h32v7.2H-344v9.7h22v7.2h-22v10.7h23.8v7.2h-26.2
			C-348.1-420.8-349.5-421.3-350.6-422.4z"/>
	</g>
	<rect x="-54.9" y="218.6" class="st3" width="8.3" height="8.3"/>
	<rect x="-63.2" y="218.6" class="st4" width="8.3" height="8.3"/>
	<g>
		<rect x="-129.2" y="-44.1" class="st3" width="8.2" height="8.2"/>
		<rect x="-121" y="-44.1" class="st3" width="8.2" height="8.2"/>
		<rect x="-129.2" y="-60.4" class="st3" width="16.4" height="16.4"/>
		<rect x="-153.7" y="-60.4" class="st3" width="24.5" height="24.5"/>
		<rect x="-153.7" y="-35.9" class="st3" width="40.9" height="40.9"/>
		<rect x="-112.8" y="-60.4" class="st3" width="65.4" height="65.4"/>
	</g>
	<rect x="-88.1" y="201.9" class="st4" width="24.9" height="24.9"/>
	<rect x="-88.1" y="226.9" class="st4" width="41.5" height="41.5"/>
	<rect x="-46.7" y="201.9" class="st4" width="66.4" height="66.4"/>
	<rect x="-88.1" y="94.1" class="st4" width="107.9" height="107.9"/>
	<rect x="-262.4" y="94.1" class="st4" width="174.2" height="174.2"/>
	<path class="st5" d="M-435,24.6l-78.5,78.5c-4.4,4.4-11.9,1.3-11.9-4.9V31.6c0-3.9,3.1-7,7-7H-435z"/>
	<path class="st5" d="M-495.8,120.6l78.2-78.2v83.2c0,3.9-3.1,7-7,7h-66.3C-497,132.5-500.2,125-495.8,120.6z"/>
	<path class="st5" d="M-351.2-6.7v132.2c0,3.9-3.1,7-7,7h-27.5c-3.9,0-7-3.1-7-7V13.7c0-7.7-6.3-14-14-14h-111.8c-3.9,0-7-3.1-7-7
		v-27.5c0-3.9,3.1-7,7-7h132.2C-366.9-41.7-351.2-26.1-351.2-6.7z"/>
	<g>
		
			<linearGradient id="SVGID_1_" gradientUnits="userSpaceOnUse" x1="-207.9536" y1="1089.9563" x2="-121.2224" y2="1176.6876" gradientTransform="matrix(1 0 0 -1 0 364.4255)">
			<stop  offset="0" style="stop-color:#800012"/>
			<stop  offset="1" style="stop-color:#C8102E"/>
		</linearGradient>
		<path class="st6" d="M-98.7-791.7l-8.9,8.9l-72,72l0,0c-3.4,3.5-9.4,1-9.4-3.9v-70c0-3.9,3.1-7,7-7H-98.7z"/>
		
			<linearGradient id="SVGID_00000065795948707599088830000004857907309624556163_" gradientUnits="userSpaceOnUse" x1="-147.2665" y1="1029.2692" x2="-60.5353" y2="1116.0004" gradientTransform="matrix(1 0 0 -1 0 364.4255)">
			<stop  offset="0" style="stop-color:#800012"/>
			<stop  offset="1" style="stop-color:#C8102E"/>
		</linearGradient>
		<path style="display:inline;fill:url(#SVGID_00000065795948707599088830000004857907309624556163_);" d="M-81.1-774.1v83.2
			c0,3.9-3.1,7-7,7h-66.4c-6.2,0-9.4-7.5-4.9-11.9L-81.1-774.1z"/>
		
			<linearGradient id="SVGID_00000032627460741813903280000000269410006923680903_" gradientUnits="userSpaceOnUse" x1="-177.5726" y1="1059.5753" x2="-90.8413" y2="1146.3066" gradientTransform="matrix(1 0 0 -1 0 364.4255)">
			<stop  offset="0" style="stop-color:#800012"/>
			<stop  offset="1" style="stop-color:#C8102E"/>
		</linearGradient>
		<path style="display:inline;fill:url(#SVGID_00000032627460741813903280000000269410006923680903_);" d="M-14.7-823.1v132.3
			c0,3.9-3.1,7-7,7h-27.5c-3.9,0-7-3.1-7-7v-111.7c0-7.7-6.3-14-14-14H-182c-3.9,0-7-3.1-7-7V-851c0-3.9,3.1-7,7-7h132.3
			C-30.4-858.1-14.7-842.4-14.7-823.1z"/>
	</g>
	<g>
		
			<image style="display:inline;overflow:visible;enable-background:new    ;" width="1469" height="4134" xlink:href="6E16ACD.png"  transform="matrix(0.9997 0 0 0.9997 1531.8706 -2995.5203)">
		</image>
	</g>
	<g>
		<g class="st2">
			<path class="st9" d="M382-510h18.8v39.4h44.4V-510H464v95.3h-18.8v-39.6h-44.4v39.6H382V-510z"/>
			<path class="st9" d="M486.1-421.9c-5.6-5.6-8.4-13.4-8.4-23.4h18.5c0,4.7,1.2,8.4,3.6,11.1s5.7,4,10,4h15.1c4,0,7.2-0.8,9.7-2.5
				s3.7-3.9,3.7-6.7v-4.6c0-4.4-3.3-7.2-9.8-8.3l-25.1-4.2c-8.2-1.4-14.4-4-18.6-7.8c-4.2-3.9-6.3-8.8-6.3-14.8v-7.6
				c0-4.8,1.3-9.1,3.9-12.7c2.6-3.7,6.3-6.5,11-8.5c4.8-2,10.3-3,16.5-3h15.4c5.9,0,11.1,1.2,15.7,3.7c4.5,2.5,8.1,5.9,10.6,10.3
				c2.5,4.4,3.7,9.5,3.7,15.3h-18.4c0-3.8-1-6.9-3.1-9.2c-2.1-2.3-4.9-3.5-8.3-3.5h-15.4c-3.8,0-6.9,0.8-9.2,2.5
				c-2.3,1.6-3.5,3.8-3.5,6.5v3.7c0,4.5,3.1,7.4,9.4,8.4l24.9,4.4c8.3,1.5,14.6,4,18.9,7.7c4.4,3.7,6.5,8.4,6.5,14.2v9
				c0,4.8-1.3,9.1-4,12.8c-2.7,3.7-6.4,6.6-11.2,8.6c-4.8,2-10.4,3.1-16.8,3.1h-15.7C499.5-413.5,491.7-416.3,486.1-421.9z"/>
			<path class="st9" d="M584.9-418.1c-5.5-3-9.8-7.3-12.8-12.8s-4.6-11.9-4.6-19.1v-24.5c0-7.3,1.5-13.6,4.6-19.1
				c3-5.5,7.3-9.8,12.8-12.8s11.8-4.6,19-4.6h14.4c7.2,0,13.5,1.5,19,4.6c5.5,3,9.8,7.3,12.8,12.8s4.6,11.9,4.6,19.1v24.5
				c0,7.3-1.5,13.6-4.6,19.1c-3,5.5-7.3,9.8-12.8,12.8s-11.8,4.6-19,4.6h-14.4C596.7-413.5,590.4-415.1,584.9-418.1z M618.3-430.2
				c5.3,0,9.5-1.9,12.7-5.7c3.2-3.8,4.8-8.8,4.8-15v-22.9c0-6.2-1.6-11.2-4.8-15s-7.5-5.7-12.7-5.7h-14.4c-5.3,0-9.5,1.9-12.7,5.7
				s-4.8,8.8-4.8,15v22.9c0,6.2,1.6,11.2,4.8,15s7.5,5.7,12.7,5.7H618.3z"/>
			<path class="st9" d="M722.6-493.6h-30.2v-16.3h79.3v16.3h-30.2v79h-18.8L722.6-493.6L722.6-493.6z"/>
			<path class="st9" d="M781.7-510h50.7c8.3,0,14.9,2.2,20,6.7c5,4.4,7.6,10.3,7.6,17.6v9.5c0,4.7-1.3,8.8-4,12.3s-6.6,6.2-11.6,8
				v0.3c2.9,1.9,5.1,4.1,6.6,6.5c1.5,2.5,3,5.9,4.4,10.2l7.6,24.2h-19.5l-7.2-22.6c-1.2-3.9-2.8-6.8-4.9-8.7
				c-2.1-1.9-4.7-2.9-7.8-2.9h-23v34.2h-18.8L781.7-510L781.7-510z M828.8-465c3.8,0,6.8-1,9-3.1c2.2-2,3.3-4.7,3.3-8v-8.9
				c0-2.6-0.8-4.7-2.5-6.3c-1.6-1.6-3.8-2.4-6.5-2.4h-31.6v28.6h28.3V-465z"/>
			<path class="st9" d="M929.8-436.8h-35.7l-8.4,22.2h-19.6l37.3-95.3h8.4c5.9,0,9.9,2.7,12,8.2l33.9,87.2h-19.6L929.8-436.8z
				 M899.2-452.6h25.6l-12.7-34.3H912L899.2-452.6z"/>
			<path class="st9" d="M969.6-418.2c-2.5-2.4-3.7-5.4-3.7-9.3V-510h45.5c7.3,0,13.6,1.4,19.1,4.1c5.5,2.7,9.8,6.6,12.8,11.6
				s4.6,10.8,4.6,17.3v26.7c0,11.7-3,20.6-9.1,26.6s-15,9.1-26.8,9.1h-32.8C975.2-414.6,972.1-415.8,969.6-418.2z M1011.4-431.2
				c5.8,0,10.2-1.7,13.2-5c3-3.4,4.5-8.3,4.5-14.8v-25.1c0-5.2-1.7-9.3-5-12.5c-3.4-3.1-7.8-4.7-13.2-4.7h-26.1v62.1H1011.4z"/>
			<path class="st9" d="M1065.2-418.2c-2.5-2.4-3.7-5.4-3.7-9.3V-510h72.7v16.3h-53.9v22.1h49.8v16.3h-49.8v24.2h53.9v16.3h-59.5
				C1070.8-414.6,1067.7-415.8,1065.2-418.2z"/>
		</g>
		<rect x="91.9" y="-547.6" class="st3" width="1080" height="37.6"/>
		<rect x="91.9" y="-547.6" class="st3" width="37.6" height="170.6"/>
		<rect x="654.8" y="-547.5" class="st3" width="37.6" height="170.6"/>
		<rect x="1134.3" y="-547.4" class="st3" width="37.6" height="170.6"/>
		<rect x="91.9" y="-414.6" class="st3" width="1080" height="37.6"/>
		<rect x="91.9" y="-376.7" class="st3" width="1080" height="37.6"/>
		<rect x="91.9" y="-585.1" class="st3" width="1080" height="37.6"/>
		<g class="st2">
			
				<linearGradient id="SVGID_00000176766255075263593250000012721412268310017701_" gradientUnits="userSpaceOnUse" x1="109.8784" y1="780.9513" x2="179.1098" y2="850.1826" gradientTransform="matrix(1 0 0 -1 0 364.4255)">
				<stop  offset="0" style="stop-color:#800012"/>
				<stop  offset="1" style="stop-color:#C8102E"/>
			</linearGradient>
			<path style="fill:url(#SVGID_00000176766255075263593250000012721412268310017701_);" d="M218.1-482.5l-8.7,8.7l-70.6,70.6l0,0
				c-3.4,3.4-9.2,1-9.2-3.8v-68.7c0-3.8,3.1-6.9,6.9-6.9L218.1-482.5L218.1-482.5z"/>
			
				<linearGradient id="SVGID_00000092433943913059790840000003222698801447535805_" gradientUnits="userSpaceOnUse" x1="169.3784" y1="721.4513" x2="238.6096" y2="790.6826" gradientTransform="matrix(1 0 0 -1 0 364.4255)">
				<stop  offset="0" style="stop-color:#800012"/>
				<stop  offset="1" style="stop-color:#C8102E"/>
			</linearGradient>
			<path style="fill:url(#SVGID_00000092433943913059790840000003222698801447535805_);" d="M235.3-465.2v81.6
				c0,3.8-3.1,6.9-6.9,6.9h-65c-6.1,0-9.2-7.4-4.9-11.7L235.3-465.2z"/>
			
				<linearGradient id="SVGID_00000003068594497074986780000002972297927402967206_" gradientUnits="userSpaceOnUse" x1="139.591" y1="751.2388" x2="208.8222" y2="820.47" gradientTransform="matrix(1 0 0 -1 0 364.4255)">
				<stop  offset="0" style="stop-color:#800012"/>
				<stop  offset="1" style="stop-color:#C8102E"/>
			</linearGradient>
			<path style="fill:url(#SVGID_00000003068594497074986780000002972297927402967206_);" d="M300.4-513.3v129.7
				c0,3.8-3.1,6.9-6.9,6.9h-27c-3.8,0-6.9-3.1-6.9-6.9v-109.6c0-7.6-6.1-13.7-13.7-13.7H136.4c-3.8,0-6.9-3.1-6.9-6.9v-27
				c0-3.8,3.1-6.9,6.9-6.9h129.7C285.1-547.6,300.4-532.2,300.4-513.3z"/>
		</g>
		
			<linearGradient id="SVGID_00000046314501909809764400000002531523901730008197_" gradientUnits="userSpaceOnUse" x1="277.9649" y1="763.5627" x2="404.2649" y2="889.8627" gradientTransform="matrix(1 0 0 -1 0 364.4255)">
			<stop  offset="0" style="stop-color:#800012"/>
			<stop  offset="1" style="stop-color:#C8102E"/>
		</linearGradient>
		
			<rect x="300.1" y="-547.6" style="display:inline;opacity:0.29;fill:url(#SVGID_00000046314501909809764400000002531523901730008197_);enable-background:new    ;" width="82" height="170.6"/>
	</g>
	<g>
		<path class="st14" d="M382.6,132.6h18.8v39.3h44.4v-39.3h18.8v95.3h-18.8v-39.6h-44.4v39.6h-18.8V132.6z"/>
		<path class="st14" d="M486.6,220.6c-5.6-5.6-8.4-13.4-8.4-23.3h18.5c0,4.7,1.2,8.4,3.6,11.1c2.4,2.7,5.7,4,10,4h15.1
			c4,0,7.2-0.8,9.7-2.5s3.7-3.9,3.7-6.7v-4.6c0-4.4-3.3-7.2-9.8-8.3l-25-4.2c-8.2-1.4-14.4-4-18.6-7.8c-4.2-3.9-6.3-8.8-6.3-14.8
			v-7.6c0-4.8,1.3-9,3.9-12.7s6.3-6.5,11-8.5c4.8-2,10.3-3,16.5-3h15.4c5.9,0,11.1,1.2,15.7,3.7c4.5,2.4,8.1,5.9,10.5,10.3
			c2.5,4.4,3.7,9.5,3.7,15.3h-18.5c0-3.8-1-6.9-3.1-9.2c-2.1-2.3-4.9-3.5-8.3-3.5h-15.4c-3.8,0-6.9,0.8-9.2,2.4
			c-2.3,1.6-3.5,3.8-3.5,6.5v3.7c0,4.5,3.1,7.3,9.4,8.4l24.9,4.4c8.3,1.5,14.6,4,18.9,7.7c4.4,3.7,6.5,8.4,6.5,14.2v9
			c0,4.8-1.3,9.1-4,12.8s-6.4,6.6-11.2,8.6c-4.8,2-10.4,3.1-16.7,3.1h-15.7C500,228.9,492.2,226.2,486.6,220.6z"/>
		<path class="st14" d="M585.3,224.4c-5.5-3-9.8-7.3-12.8-12.8s-4.6-11.9-4.6-19.1V168c0-7.3,1.5-13.6,4.6-19.1
			c3-5.5,7.3-9.8,12.8-12.8s11.8-4.6,19-4.6h14.4c7.2,0,13.5,1.5,19,4.6c5.5,3,9.7,7.3,12.8,12.8c3,5.5,4.6,11.9,4.6,19.1v24.5
			c0,7.3-1.5,13.6-4.6,19.1c-3,5.5-7.3,9.8-12.8,12.8s-11.8,4.6-19,4.6h-14.4C597.1,228.9,590.8,227.4,585.3,224.4z M618.7,212.3
			c5.3,0,9.5-1.9,12.7-5.7s4.8-8.8,4.8-15v-22.9c0-6.2-1.6-11.2-4.8-15s-7.5-5.7-12.7-5.7h-14.4c-5.3,0-9.5,1.9-12.7,5.7
			c-3.2,3.8-4.8,8.8-4.8,15v22.9c0,6.2,1.6,11.2,4.8,15s7.5,5.7,12.7,5.7H618.7z"/>
		<path class="st14" d="M722.9,148.9h-30.2v-16.3h79.2v16.3h-30.2v78.9h-18.8V148.9z"/>
		<path class="st14" d="M781.9,132.6h50.6c8.3,0,14.9,2.2,19.9,6.7c5,4.4,7.6,10.3,7.6,17.6v9.5c0,4.7-1.3,8.8-4,12.3
			s-6.6,6.1-11.6,8v0.3c2.9,1.9,5.1,4.1,6.6,6.5s3,5.9,4.4,10.2l7.6,24.2h-19.5l-7.2-22.6c-1.2-3.9-2.8-6.8-4.9-8.7
			c-2.1-1.9-4.7-2.9-7.8-2.9h-23v34.2h-18.7V132.6z M829,177.5c3.8,0,6.8-1,9-3.1c2.2-2,3.3-4.7,3.3-8v-8.8c0-2.6-0.8-4.7-2.4-6.3
			c-1.6-1.6-3.8-2.4-6.5-2.4h-31.6v28.6C800.8,177.5,829,177.5,829,177.5z"/>
		<path class="st14" d="M930,205.7h-35.7l-8.4,22.2h-19.6l37.3-95.3h8.4c5.9,0,9.9,2.7,12,8.2l33.9,87.1h-19.6L930,205.7z
			 M899.4,189.9H925l-12.7-34.3h-0.1L899.4,189.9z"/>
		<path class="st14" d="M969.7,224.3c-2.4-2.4-3.7-5.4-3.7-9.3v-82.4h45.5c7.3,0,13.6,1.4,19.1,4.1s9.7,6.6,12.8,11.6
			c3,5,4.6,10.8,4.6,17.3v26.6c0,11.7-3,20.6-9.1,26.6s-15,9-26.8,9h-32.8C975.4,227.9,972.2,226.7,969.7,224.3z M1011.5,211.3
			c5.8,0,10.2-1.7,13.2-5c3-3.4,4.5-8.3,4.5-14.8v-25c0-5.2-1.7-9.3-5-12.5c-3.4-3.1-7.8-4.7-13.2-4.7h-26.1v62.1h26.6V211.3z"/>
		<path class="st14" d="M1065.3,224.3c-2.4-2.4-3.7-5.4-3.7-9.3v-82.4h72.7v16.3h-53.9v22h49.8v16.3h-49.8v24.2h53.9v16.3h-59.5
			C1070.9,227.9,1067.7,226.7,1065.3,224.3z"/>
	</g>
	<rect x="91.7" y="58.9" class="st15" width="37.4" height="244.7"/>
	<rect x="1134.3" y="58.9" class="st15" width="37.4" height="244.7"/>
	<rect x="654.8" y="58.9" class="st15" width="37.4" height="244.7"/>
	<rect x="91.7" y="95.2" class="st15" width="1079.6" height="37.4"/>
	<rect x="91.7" y="58.9" class="st15" width="1079.6" height="37.4"/>
	<rect x="91.7" y="228.9" class="st15" width="1079.6" height="37.4"/>
	<rect x="91.7" y="266.2" class="st15" width="1079.6" height="37.4"/>
	<rect x="300.3" y="58.9" class="st16" width="81.9" height="244.7"/>
	<g>
		
			<linearGradient id="SVGID_00000082368122067623685370000001869666587215873689_" gradientUnits="userSpaceOnUse" x1="109.4178" y1="137.9407" x2="178.7637" y2="207.2865" gradientTransform="matrix(1 0 0 -1 0 364.4255)">
			<stop  offset="0" style="stop-color:#800012"/>
			<stop  offset="1" style="stop-color:#C8102E"/>
		</linearGradient>
		<path style="display:inline;fill:url(#SVGID_00000082368122067623685370000001869666587215873689_);" d="M217.8,160.4l-8.7,8.7
			l-70.7,70.7l0,0c-3.4,3.4-9.2,1-9.2-3.8v-68.8c0-3.8,3.1-6.9,6.9-6.9h81.7V160.4z"/>
		
			<linearGradient id="SVGID_00000026134709899263843770000015844370974819501230_" gradientUnits="userSpaceOnUse" x1="169.0428" y1="78.3158" x2="238.3887" y2="147.6616" gradientTransform="matrix(1 0 0 -1 0 364.4255)">
			<stop  offset="0" style="stop-color:#800012"/>
			<stop  offset="1" style="stop-color:#C8102E"/>
		</linearGradient>
		<path style="display:inline;fill:url(#SVGID_00000026134709899263843770000015844370974819501230_);" d="M235.1,177.7v81.8
			c0,3.8-3.1,6.9-6.9,6.9H163c-6.1,0-9.2-7.4-4.9-11.7L235.1,177.7z"/>
		
			<linearGradient id="SVGID_00000075870828580632341680000004568637698702230934_" gradientUnits="userSpaceOnUse" x1="139.2054" y1="108.1532" x2="208.5512" y2="177.4991" gradientTransform="matrix(1 0 0 -1 0 364.4255)">
			<stop  offset="0" style="stop-color:#800012"/>
			<stop  offset="1" style="stop-color:#C8102E"/>
		</linearGradient>
		<path style="display:inline;fill:url(#SVGID_00000075870828580632341680000004568637698702230934_);" d="M300.3,129.6v129.9
			c0,3.8-3.1,6.9-6.9,6.9h-27c-3.8,0-6.9-3.1-6.9-6.9V149.7c0-7.6-6.2-13.8-13.8-13.8H136c-3.8,0-6.9-3.1-6.9-6.9v-27
			c0-3.8,3.1-6.9,6.9-6.9h129.9C284.9,95.2,300.3,110.6,300.3,129.6z"/>
	</g>
	<g>
		<g class="st2">
			<path class="st9" d="M-292.9-175.2h8.2v17.2h19.4v-17.2h8.2v41.6h-8.2v-17.2h-19.4v17.3h-8.2V-175.2z"/>
			<path class="st9" d="M-247.4-136.7c-2.5-2.4-3.7-5.8-3.7-10.2h8.1c0,2.1,0.5,3.7,1.6,4.8c1.1,1.2,2.5,1.8,4.4,1.8h6.6
				c1.7,0,3.2-0.4,4.3-1.1c1.1-0.7,1.6-1.7,1.6-2.9v-2c0-1.9-1.4-3.2-4.3-3.6l-10.9-1.8c-3.6-0.6-6.3-1.7-8.1-3.4
				c-1.8-1.7-2.8-3.8-2.8-6.5v-3.3c0-2.1,0.6-4,1.7-5.6s2.7-2.8,4.8-3.7c2.1-0.9,4.5-1.3,7.2-1.3h6.7c2.6,0,4.9,0.5,6.8,1.6
				c2,1.1,3.5,2.6,4.6,4.5s1.6,4.2,1.6,6.7h-8.1c0-1.7-0.5-3-1.4-4s-2.1-1.5-3.6-1.5h-6.7c-1.7,0-3,0.4-4,1.1
				c-1,0.7-1.5,1.7-1.5,2.9v1.6c0,2,1.4,3.2,4.1,3.7l10.9,1.9c3.6,0.6,6.4,1.8,8.3,3.4c1.9,1.6,2.9,3.7,2.9,6.2v3.9
				c0,2.1-0.6,4-1.8,5.6c-1.2,1.6-2.8,2.9-4.9,3.8c-2.1,0.9-4.5,1.3-7.3,1.3h-6.8C-241.5-133-245-134.3-247.4-136.7z"/>
			<path class="st9" d="M-204.3-135c-2.4-1.3-4.3-3.2-5.6-5.6c-1.3-2.4-2-5.2-2-8.4v-10.7c0-3.2,0.7-6,2-8.4s3.2-4.3,5.6-5.6
				s5.2-2,8.3-2h6.3c3.1,0,5.9,0.7,8.3,2s4.3,3.2,5.6,5.6c1.3,2.4,2,5.2,2,8.4v10.7c0,3.2-0.7,6-2,8.4s-3.2,4.3-5.6,5.6
				s-5.2,2-8.3,2h-6.3C-199.1-133-201.9-133.7-204.3-135z M-189.7-140.3c2.3,0,4.2-0.8,5.6-2.5s2.1-3.8,2.1-6.5v-10
				c0-2.7-0.7-4.9-2.1-6.5c-1.4-1.7-3.3-2.5-5.6-2.5h-6.3c-2.3,0-4.2,0.8-5.6,2.5s-2.1,3.8-2.1,6.5v10c0,2.7,0.7,4.9,2.1,6.5
				c1.4,1.7,3.3,2.5,5.6,2.5H-189.7z"/>
			<path class="st9" d="M-144.1-168h-13.2v-7.1h34.6v7.1h-13.2v34.5h-8.2V-168z"/>
			<path class="st9" d="M-118.3-175.2h22.1c3.6,0,6.5,1,8.7,2.9s3.3,4.5,3.3,7.7v4.2c0,2.1-0.6,3.9-1.8,5.4s-2.9,2.7-5.1,3.5v0.1
				c1.3,0.8,2.2,1.8,2.9,2.9c0.7,1.1,1.3,2.6,1.9,4.5l3.3,10.6h-8.5l-3.2-9.9c-0.5-1.7-1.2-3-2.1-3.8c-0.9-0.8-2-1.2-3.4-1.2h-9.9
				v14.9h-8.2V-175.2z M-97.7-155.5c1.7,0,3-0.4,3.9-1.3c1-0.9,1.4-2.1,1.4-3.5v-3.9c0-1.1-0.4-2.1-1.1-2.8c-0.7-0.7-1.7-1-2.9-1
				h-13.7v12.5H-97.7z"/>
			<path class="st9" d="M-53.6-143.2h-15.6l-3.7,9.7h-8.6l16.3-41.6h3.7c2.6,0,4.3,1.2,5.2,3.6l14.8,38.1h-8.6L-53.6-143.2z
				 M-67-150.1h11.2l-5.5-15h-0.1L-67-150.1z"/>
			<path class="st9" d="M-36.2-135.1c-1.1-1-1.6-2.4-1.6-4v-36.1h19.9c3.2,0,6,0.6,8.4,1.8s4.3,2.9,5.6,5.1c1.3,2.2,2,4.7,2,7.6
				v11.7c0,5.1-1.3,9-4,11.6s-6.6,4-11.7,4h-14.3C-33.7-133.5-35.1-134-36.2-135.1z M-17.9-140.8c2.5,0,4.5-0.7,5.8-2.2s2-3.6,2-6.5
				v-10.9c0-2.3-0.7-4.1-2.2-5.4c-1.5-1.4-3.4-2.1-5.8-2.1h-11.4v27.1L-17.9-140.8L-17.9-140.8z"/>
			<path class="st9" d="M5.6-135.1c-1.1-1-1.6-2.4-1.6-4v-36.1h31.8v7.1H12.2v9.6h21.7v7.1H12.1v10.6h23.6v7.1h-26
				C8-133.5,6.6-134,5.6-135.1z"/>
		</g>
		<rect x="-420.1" y="-207.4" class="st3" width="16.4" height="107"/>
		<rect x="35.7" y="-207.4" class="st3" width="16.4" height="107"/>
		<rect x="-420.1" y="-191.5" class="st3" width="472" height="16.4"/>
		<rect x="-420.1" y="-207.4" class="st3" width="472" height="16.4"/>
		<rect x="-420.1" y="-133" class="st3" width="472" height="16.4"/>
		<rect x="-420.1" y="-116.8" class="st3" width="472" height="16.4"/>
		<rect x="-328.9" y="-207.4" class="st20" width="35.8" height="107"/>
		<g class="st2">
			
				<linearGradient id="SVGID_00000079477268359570919010000013170957180944836230_" gradientUnits="userSpaceOnUse" x1="-412.3087" y1="498.5267" x2="-381.9915" y2="528.8439" gradientTransform="matrix(1 0 0 -1 0 364.4255)">
				<stop  offset="0" style="stop-color:#800012"/>
				<stop  offset="1" style="stop-color:#C8102E"/>
			</linearGradient>
			<path style="fill:url(#SVGID_00000079477268359570919010000013170957180944836230_);" d="M-364.9-163l-3.8,3.8l-30.9,30.9l0,0
				c-1.5,1.5-4,0.4-4-1.7v-30.1c0-1.7,1.3-3,3-3h35.7V-163z"/>
			
				<linearGradient id="SVGID_00000165943727060592856570000008787004047194590890_" gradientUnits="userSpaceOnUse" x1="-386.2213" y1="472.4392" x2="-355.904" y2="502.7564" gradientTransform="matrix(1 0 0 -1 0 364.4255)">
				<stop  offset="0" style="stop-color:#800012"/>
				<stop  offset="1" style="stop-color:#C8102E"/>
			</linearGradient>
			<path style="fill:url(#SVGID_00000165943727060592856570000008787004047194590890_);" d="M-357.4-155.4v35.8c0,1.7-1.3,3-3,3
				h-28.5c-2.7,0-4-3.2-2.1-5.1L-357.4-155.4z"/>
			
				<linearGradient id="SVGID_00000169541585515259690840000000809551498490398376_" gradientUnits="userSpaceOnUse" x1="-399.2899" y1="485.5079" x2="-368.9727" y2="515.8251" gradientTransform="matrix(1 0 0 -1 0 364.4255)">
				<stop  offset="0" style="stop-color:#800012"/>
				<stop  offset="1" style="stop-color:#C8102E"/>
			</linearGradient>
			<path style="fill:url(#SVGID_00000169541585515259690840000000809551498490398376_);" d="M-328.9-176.5v56.8c0,1.7-1.3,3-3,3
				h-11.8c-1.7,0-3-1.3-3-3v-48c0-3.3-2.7-6-6-6h-48c-1.7,0-3-1.3-3-3v-11.8c0-1.7,1.3-3,3-3h56.8
				C-335.6-191.5-328.9-184.8-328.9-176.5z"/>
		</g>
	</g>
	<circle class="st4" cx="-13.5" cy="235.1" r="33.2"/>
</g>
<g id="Capa_3" class="st0">
	<g class="st2">
		<g>
			<path class="st9" d="M352,521.4h18.8v39.3h44.4v-39.3h18.7v95.3h-18.8v-39.6h-44.4v39.6h-18.8L352,521.4L352,521.4z"/>
			<path class="st9" d="M455.9,609.4c-5.6-5.6-8.4-13.4-8.4-23.3H466c0,4.7,1.2,8.4,3.6,11.1c2.4,2.7,5.7,4,10,4h15.1
				c4,0,7.2-0.8,9.7-2.5s3.7-3.9,3.7-6.7v-4.6c0-4.4-3.3-7.2-9.8-8.3l-25-4.2c-8.2-1.4-14.4-4-18.6-7.8c-4.2-3.9-6.3-8.8-6.3-14.8
				v-7.6c0-4.8,1.3-9,3.9-12.7s6.3-6.5,11-8.5c4.8-2,10.3-3,16.5-3h15.4c5.9,0,11.1,1.2,15.7,3.7c4.5,2.4,8.1,5.9,10.5,10.3
				c2.5,4.4,3.7,9.5,3.7,15.3h-18.5c0-3.8-1-6.9-3.1-9.2c-2.1-2.3-4.9-3.5-8.3-3.5h-15.3c-3.8,0-6.9,0.8-9.2,2.4
				c-2.3,1.6-3.5,3.8-3.5,6.5v3.7c0,4.5,3.1,7.3,9.4,8.4l24.9,4.4c8.3,1.5,14.6,4,18.9,7.7c4.4,3.7,6.5,8.4,6.5,14.2v9
				c0,4.8-1.3,9.1-4,12.8s-6.4,6.6-11.2,8.6c-4.8,2-10.4,3.1-16.7,3.1h-15.7C469.4,617.8,461.5,615,455.9,609.4z"/>
			<path class="st9" d="M554.6,613.2c-5.5-3-9.8-7.3-12.8-12.8s-4.6-11.9-4.6-19.1v-24.5c0-7.3,1.5-13.6,4.6-19.1
				c3-5.5,7.3-9.8,12.8-12.8s11.8-4.6,19-4.6H588c7.2,0,13.5,1.5,19,4.6c5.5,3,9.7,7.3,12.8,12.8c3,5.5,4.6,11.9,4.6,19.1v24.5
				c0,7.3-1.5,13.6-4.6,19.1c-3,5.5-7.3,9.8-12.8,12.8s-11.8,4.6-19,4.6h-14.4C566.5,617.8,560.1,616.3,554.6,613.2z M588.1,601.2
				c5.3,0,9.5-1.9,12.7-5.7s4.8-8.8,4.8-15v-22.9c0-6.2-1.6-11.2-4.8-15s-7.5-5.7-12.7-5.7h-14.4c-5.3,0-9.5,1.9-12.7,5.7
				s-4.8,8.8-4.8,15v22.9c0,6.2,1.6,11.2,4.8,15c3.2,3.8,7.5,5.7,12.7,5.7H588.1z"/>
			<path class="st9" d="M692.2,537.8H662v-16.3h79.2v16.3H711v78.9h-18.8V537.8z"/>
			<path class="st9" d="M751.3,521.4h50.6c8.3,0,14.9,2.2,19.9,6.7c5,4.4,7.6,10.3,7.6,17.6v9.5c0,4.7-1.3,8.8-4,12.3
				c-2.7,3.5-6.6,6.1-11.6,8v0.3c2.9,1.9,5.1,4.1,6.6,6.5s3,5.9,4.4,10.2l7.6,24.2h-19.5l-7.2-22.6c-1.2-3.9-2.8-6.8-4.9-8.7
				c-2.1-1.9-4.7-2.9-7.8-2.9h-23v34.2h-18.8v-95.3H751.3z M798.4,566.3c3.8,0,6.8-1,9-3.1c2.2-2,3.3-4.7,3.3-8v-8.8
				c0-2.6-0.8-4.7-2.4-6.3c-1.6-1.6-3.8-2.4-6.5-2.4h-31.6v28.6L798.4,566.3L798.4,566.3z"/>
			<path class="st9" d="M899.3,594.5h-35.7l-8.4,22.2h-19.6l37.3-95.3h8.4c5.9,0,9.9,2.7,12,8.2l33.9,87.1h-19.6L899.3,594.5z
				 M868.7,578.7h25.6l-12.7-34.3h-0.1L868.7,578.7z"/>
			<path class="st9" d="M939.1,613.1c-2.4-2.4-3.7-5.4-3.7-9.3v-82.5h45.5c7.3,0,13.6,1.4,19.1,4.1s9.7,6.6,12.8,11.6
				c3,5,4.6,10.8,4.6,17.3V581c0,11.7-3,20.6-9.1,26.6s-15,9-26.8,9h-32.8C944.7,616.7,941.5,615.5,939.1,613.1z M980.8,600.1
				c5.8,0,10.2-1.7,13.2-5c3-3.4,4.5-8.3,4.5-14.8v-25c0-5.2-1.7-9.3-5-12.5c-3.4-3.1-7.8-4.7-13.2-4.7h-26.1v62.1L980.8,600.1
				L980.8,600.1z"/>
			<path class="st9" d="M1034.6,613.1c-2.4-2.4-3.7-5.4-3.7-9.3v-82.5h72.7v16.3h-53.9v22h49.8v16.3h-49.8v24.2h53.9v16.3h-59.5
				C1040.2,616.7,1037,615.5,1034.6,613.1z"/>
		</g>
		<g>
			
				<linearGradient id="SVGID_00000083803629668312947400000003229559074120151995_" gradientUnits="userSpaceOnUse" x1="78.717" y1="-250.8601" x2="148.0628" y2="-181.5144" gradientTransform="matrix(1 0 0 -1 0 364.4255)">
				<stop  offset="0" style="stop-color:#800012"/>
				<stop  offset="1" style="stop-color:#C8102E"/>
			</linearGradient>
			<path style="fill:url(#SVGID_00000083803629668312947400000003229559074120151995_);" d="M187.1,549.2l-8.7,8.7l-70.7,70.7l0,0
				c-3.4,3.4-9.2,1-9.2-3.8V556c0-3.8,3.1-6.9,6.9-6.9L187.1,549.2L187.1,549.2z"/>
			
				<linearGradient id="SVGID_00000182498860771160357120000000124799334087056287_" gradientUnits="userSpaceOnUse" x1="138.3419" y1="-310.4851" x2="207.6878" y2="-241.1393" gradientTransform="matrix(1 0 0 -1 0 364.4255)">
				<stop  offset="0" style="stop-color:#800012"/>
				<stop  offset="1" style="stop-color:#C8102E"/>
			</linearGradient>
			<path style="fill:url(#SVGID_00000182498860771160357120000000124799334087056287_);" d="M204.4,566.5v81.8
				c0,3.8-3.1,6.9-6.9,6.9h-65.2c-6.1,0-9.2-7.4-4.9-11.7L204.4,566.5z"/>
			
				<linearGradient id="SVGID_00000103241054309103348420000006366693490606342327_" gradientUnits="userSpaceOnUse" x1="108.5044" y1="-280.6476" x2="177.8503" y2="-211.3018" gradientTransform="matrix(1 0 0 -1 0 364.4255)">
				<stop  offset="0" style="stop-color:#800012"/>
				<stop  offset="1" style="stop-color:#C8102E"/>
			</linearGradient>
			<path style="fill:url(#SVGID_00000103241054309103348420000006366693490606342327_);" d="M269.6,518.4v129.9
				c0,3.8-3.1,6.9-6.9,6.9h-27c-3.8,0-6.9-3.1-6.9-6.9V538.5c0-7.6-6.2-13.8-13.8-13.8H105.3c-3.8,0-6.9-3.1-6.9-6.9v-27
				c0-3.8,3.1-6.9,6.9-6.9h129.9C254.2,484,269.6,499.4,269.6,518.4z"/>
		</g>
	</g>
</g>
<g class="st0">
	<path class="st14" d="M360.5,135.5h18.8v39.3h44.4v-39.3h18.8v95.3h-18.8v-39.6h-44.4v39.6h-18.8V135.5z"/>
	<path class="st14" d="M464.5,223.5c-5.6-5.6-8.4-13.4-8.4-23.3h18.5c0,4.7,1.2,8.4,3.6,11.1c2.4,2.7,5.7,4,10,4h15.1
		c4,0,7.2-0.8,9.7-2.5c2.5-1.7,3.7-3.9,3.7-6.7v-4.6c0-4.4-3.3-7.2-9.8-8.3l-25-4.2c-8.2-1.4-14.4-4-18.6-7.8
		c-4.2-3.9-6.3-8.8-6.3-14.8v-7.6c0-4.8,1.3-9,3.9-12.7s6.3-6.5,11-8.5c4.8-2,10.3-3,16.5-3h15.4c5.9,0,11.1,1.2,15.7,3.7
		c4.5,2.4,8.1,5.9,10.5,10.3c2.5,4.4,3.7,9.5,3.7,15.3h-18.5c0-3.8-1-6.9-3.1-9.2c-2.1-2.3-4.9-3.5-8.3-3.5h-15.4
		c-3.8,0-6.9,0.8-9.2,2.4c-2.3,1.6-3.5,3.8-3.5,6.5v3.7c0,4.5,3.1,7.3,9.4,8.4l24.9,4.4c8.3,1.5,14.6,4,18.9,7.7
		c4.4,3.7,6.5,8.4,6.5,14.2v9c0,4.8-1.3,9.1-4,12.8s-6.4,6.6-11.2,8.6c-4.8,2-10.4,3.1-16.7,3.1h-15.7
		C477.9,231.8,470.1,229.1,464.5,223.5z"/>
	<path class="st14" d="M563.2,227.3c-5.5-3-9.8-7.3-12.8-12.8s-4.6-11.9-4.6-19.1v-24.5c0-7.3,1.5-13.6,4.6-19.1
		c3-5.5,7.3-9.8,12.8-12.8s11.8-4.6,19-4.6h14.4c7.2,0,13.5,1.5,19,4.6c5.5,3,9.7,7.3,12.8,12.8c3,5.5,4.6,11.9,4.6,19.1v24.5
		c0,7.3-1.5,13.6-4.6,19.1c-3,5.5-7.3,9.8-12.8,12.8s-11.8,4.6-19,4.6h-14.4C575,231.8,568.7,230.3,563.2,227.3z M596.6,215.2
		c5.3,0,9.5-1.9,12.7-5.7s4.8-8.8,4.8-15v-22.9c0-6.2-1.6-11.2-4.8-15s-7.5-5.7-12.7-5.7h-14.4c-5.3,0-9.5,1.9-12.7,5.7
		s-4.8,8.8-4.8,15v22.9c0,6.2,1.6,11.2,4.8,15s7.5,5.7,12.7,5.7H596.6z"/>
	<path class="st14" d="M700.8,151.8h-30.2v-16.3h79.2v16.3h-30.2v78.9h-18.8V151.8z"/>
	<path class="st14" d="M759.8,135.5h50.6c8.3,0,14.9,2.2,19.9,6.7c5,4.4,7.6,10.3,7.6,17.6v9.5c0,4.7-1.3,8.8-4,12.3
		s-6.6,6.1-11.6,8v0.3c2.9,1.9,5.1,4.1,6.6,6.5s3,5.9,4.4,10.2l7.6,24.2h-19.5l-7.2-22.6c-1.2-3.9-2.8-6.8-4.9-8.7
		c-2.1-1.9-4.7-2.9-7.8-2.9h-23v34.2h-18.7V135.5z M806.9,180.4c3.8,0,6.8-1,9-3.1c2.2-2,3.3-4.7,3.3-8v-8.8c0-2.6-0.8-4.7-2.4-6.3
		c-1.6-1.6-3.8-2.4-6.5-2.4h-31.6v28.6C778.7,180.4,806.9,180.4,806.9,180.4z"/>
	<path class="st14" d="M907.9,208.6h-35.7l-8.4,22.2h-19.6l37.3-95.3h8.4c5.9,0,9.9,2.7,12,8.2l33.9,87.1h-19.6L907.9,208.6z
		 M877.3,192.8h25.6l-12.7-34.3h-0.1L877.3,192.8z"/>
	<path class="st14" d="M947.6,227.2c-2.4-2.4-3.7-5.4-3.7-9.3v-82.4h45.5c7.3,0,13.6,1.4,19.1,4.1s9.7,6.6,12.8,11.6
		c3,5,4.6,10.8,4.6,17.3v26.6c0,11.7-3,20.6-9.1,26.6s-15,9-26.8,9h-32.8C953.3,230.8,950.1,229.6,947.6,227.2z M989.4,214.2
		c5.8,0,10.2-1.7,13.2-5c3-3.4,4.5-8.3,4.5-14.8v-25c0-5.2-1.7-9.3-5-12.5c-3.4-3.1-7.8-4.7-13.2-4.7h-26.1v62.1h26.6V214.2z"/>
	<path class="st14" d="M1043.2,227.2c-2.4-2.4-3.7-5.4-3.7-9.3v-82.4h72.7v16.3h-53.9v22h49.8v16.3h-49.8v24.2h53.9v16.3h-59.5
		C1048.8,230.8,1045.6,229.6,1043.2,227.2z"/>
</g>
<g>
	
		<linearGradient id="SVGID_00000053519282008950263540000010698346911539944342_" gradientUnits="userSpaceOnUse" x1="87.3199" y1="125.8524" x2="156.6658" y2="195.1982" gradientTransform="matrix(1 0 0 -1 0 364.4255)">
		<stop  offset="0" style="stop-color:#800012"/>
		<stop  offset="1" style="stop-color:#C8102E"/>
	</linearGradient>
	<path style="fill:url(#SVGID_00000053519282008950263540000010698346911539944342_);" d="M195.7,172.5l-8.7,8.7l-70.7,70.7l0,0
		c-3.4,3.4-9.2,1-9.2-3.8v-68.8c0-3.8,3.1-6.9,6.9-6.9h81.7V172.5z"/>
	
		<linearGradient id="SVGID_00000116922633563374854600000005612605387631052477_" gradientUnits="userSpaceOnUse" x1="146.9449" y1="66.2275" x2="216.2908" y2="135.5733" gradientTransform="matrix(1 0 0 -1 0 364.4255)">
		<stop  offset="0" style="stop-color:#800012"/>
		<stop  offset="1" style="stop-color:#C8102E"/>
	</linearGradient>
	<path style="fill:url(#SVGID_00000116922633563374854600000005612605387631052477_);" d="M213,189.8v81.8c0,3.8-3.1,6.9-6.9,6.9
		h-65.2c-6.1,0-9.2-7.4-4.9-11.7L213,189.8z"/>
	
		<linearGradient id="SVGID_00000004519500781317854890000008907462762705299389_" gradientUnits="userSpaceOnUse" x1="117.1075" y1="96.0649" x2="186.4533" y2="165.4108" gradientTransform="matrix(1 0 0 -1 0 364.4255)">
		<stop  offset="0" style="stop-color:#800012"/>
		<stop  offset="1" style="stop-color:#C8102E"/>
	</linearGradient>
	<path style="fill:url(#SVGID_00000004519500781317854890000008907462762705299389_);" d="M278.2,141.7v129.9c0,3.8-3.1,6.9-6.9,6.9
		h-27c-3.8,0-6.9-3.1-6.9-6.9V161.8c0-7.6-6.2-13.8-13.8-13.8H113.9c-3.8,0-6.9-3.1-6.9-6.9v-27c0-3.8,3.1-6.9,6.9-6.9h129.9
		C262.8,107.3,278.2,122.7,278.2,141.7z"/>
</g>
</svg>
